<svg xmlns="http://www.w3.org/2000/svg" xmlns:xlink="http://www.w3.org/1999/xlink" width="100px" height="53px" viewBox="0 0 100 53" version="1.1">
    <title>n11</title>
    <defs>
        <path d="M1.95673511,12.0392154 C-2.90316489,22.4809154 1.60073511,34.8858154 12.0231351,39.7553154 C22.4455351,44.6249154 34.8311351,40.1018154 39.6911351,29.6601154 C44.5514351,19.2185154 40.0471351,6.81361545 29.6247351,1.95361545 C26.7761351,0.625615447 23.7928351,3.55271368e-15 20.8480351,3.55271368e-15 C12.9951351,-0.00958455251 5.48863511,4.45581545 1.95673511,12.0392154 L1.95673511,12.0392154 Z" id="path-1"/>
        <polygon id="path-3" points="102.510793 -4.4408921e-16 0 -4.4408921e-16 0 56.000011 102.510793 56.000011"/>
        <polygon id="path-5" points="102.510793 -4.4408921e-16 0 -4.4408921e-16 0 56.000011 102.510793 56.000011"/>
        <polygon id="path-7" points="102.510793 -4.4408921e-16 0 -4.4408921e-16 0 56.000011 102.510793 56.000011"/>
        <polygon id="path-9" points="102.510793 -4.4408921e-16 0 -4.4408921e-16 0 56.000011 102.510793 56.000011"/>
        <polygon id="path-11" points="102.510793 -4.4408921e-16 0 -4.4408921e-16 0 56.000011 102.510793 56.000011"/>
        <polygon id="path-13" points="102.510793 -4.4408921e-16 0 -4.4408921e-16 0 56.000011 102.510793 56.000011"/>
        <polygon id="path-15" points="102.510793 -4.4408921e-16 0 -4.4408921e-16 0 56.000011 102.510793 56.000011"/>
        <path d="M1.95673511,12.0489 C-2.90316489,22.4905 1.60073511,34.8954 12.0231351,39.765 C22.4455351,44.6345 34.8311351,40.1114 39.6911351,29.6697 C44.5514351,19.2281 40.0471351,6.8232 29.6247351,1.9536 C26.7761351,0.6256 23.7928351,5.32907052e-15 20.8480351,5.32907052e-15 C12.9951351,5.32907052e-15 5.48863511,4.4654 1.95673511,12.0489 L1.95673511,12.0489 Z" id="path-17"/>
    </defs>
    <g id="Page-1" stroke="none" stroke-width="1" fill="none" fill-rule="evenodd">
        <g id="n11" transform="translate(0.600100, 0.400025)">
            <g id="Group" transform="translate(57.209465, 0.000000)" fill="#231F1F" fill-rule="nonzero">
                <path d="M38.5074351,20.4741751 C39.2388351,15.4024751 36.6307351,10.2538751 31.7612351,7.97307507 C26.8916351,5.70188507 21.2714351,7.01070507 17.8646351,10.8312751 C11.1473351,11.8032751 5.03633511,16.0472751 1.95673511,22.6683751 C-2.90316489,33.1100751 1.60073511,45.5148751 12.0231351,50.3844751 C22.4455351,55.2540751 34.8311351,50.7309751 39.6911351,40.2892751 C42.7614351,33.6585751 42.0774351,26.2483751 38.5074351,20.4741751 Z" id="Path"/>
                <path d="M26.7760351,3.57495507 C27.6613351,3.98877507 28.7392351,3.56533507 29.1819351,2.62221507 C29.6245351,1.67909507 29.2589351,0.582005066 28.3639351,0.158565066 C27.4785351,-0.255254934 26.4006351,0.168185066 25.9579351,1.11130507 C25.5249351,2.05442507 25.8906351,3.15151507 26.7760351,3.57495507 Z" id="Path"/>
                <path d="M38.2183351,8.91597507 C39.1037351,9.32987507 40.1815351,8.90637507 40.6242351,7.96327507 C41.0669351,7.02016507 40.7012351,5.92306507 39.8062351,5.49962507 C38.9209351,5.08581507 37.8430351,5.50925507 37.4003351,6.45236507 C36.9673351,7.40510507 37.3330351,8.50217507 38.2183351,8.91597507 L38.2183351,8.91597507 Z" id="Path"/>
            </g>
            <path d="M18.5448,44.2445751 C15.2535,44.2445751 14.243,43.1474751 14.243,39.8561751 L14.243,32.2919751 C14.243,29.3952751 13.2614,28.0960751 10.7592,28.0960751 C8.6035,28.0960751 7.42945,29.5492751 7.42945,32.1764751 L7.42945,44.2541751 L4.92731,44.2541751 C1.76113,44.2541751 1.77635684e-15,43.0030751 1.77635684e-15,39.8657751 L1.77635684e-15,32.3015751 C1.77635684e-15,26.1039751 4.1093,22.0716751 10.9613,22.0716751 C18.5929,22.0716751 21.6821,26.1135751 21.6821,32.4940751 L21.6821,44.2541751 L18.5448,44.2541751 L18.5448,44.2445751 Z" id="Path" fill="#5D3EBC" fill-rule="nonzero"/>
            <path d="M33.0958,44.2445751 C30.8631,44.2445751 29.1405,42.7143751 29.1405,40.1255751 L29.1405,24.6026751 L26.6768,25.3821751 C26.1283,25.5361751 25.5798,25.6131751 25.0697,25.6131751 C23.501,25.6131751 22.2885,24.8721751 22.0575,23.5729751 L21.5859,20.9841751 L28.6689,18.0008751 C29.843,17.4907751 31.3347,17.1731751 33.0092,17.1731751 C34.7703,17.1731751 36.57,18.4242751 36.57,20.5414751 L36.57,44.2156751 L33.0958,44.2156751 L33.0958,44.2445751 Z" id="Path" fill="#5D3EBC" fill-rule="nonzero"/>
            <path d="M50.1295,44.2445751 C47.8968,44.2445751 46.1742,42.7143751 46.1742,40.1255751 L46.1742,24.6026751 L43.7105,25.3821751 C43.162,25.5361751 42.6134,25.6131751 42.1034,25.6131751 C40.5347,25.6131751 39.3222,24.8721751 39.0912,23.5729751 L38.6196,20.9841751 L45.7026,18.0008751 C46.8767,17.4907751 48.3684,17.1731751 50.0429,17.1731751 C51.804,17.1731751 53.6036,18.4242751 53.6036,20.5414751 L53.6036,44.2156751 L50.1295,44.2156751 L50.1295,44.2445751 Z" id="Path" fill="#5D3EBC" fill-rule="nonzero"/>
            <path d="M95.7169,20.4644751 C96.4483,15.3927751 93.8402,10.2441751 88.9707,7.96337507 C84.1011,5.69218507 78.4809,7.00099507 75.0741,10.8215751 C68.3568,11.7935751 62.2458,16.0279751 59.1662,22.6586751 C54.3063,33.1002751 58.8102,45.5051751 69.2326,50.3747751 C79.655,55.2443751 92.0406,50.7211751 96.9006,40.2795751 C99.9709,33.6584751 99.2869,26.2482751 95.7169,20.4644751 Z" id="Path" fill="#FFFFFF" fill-rule="nonzero"/>
            <path d="M94.7159,23.8039751 C91.9347,29.7705751 84.8613,32.3497751 78.9139,29.5684751 C72.9568,26.7872751 70.3873,19.6946751 73.1589,13.7375751 C75.9402,7.77097507 83.0136,5.19180507 88.9706,7.97307507 C94.918,10.7542751 97.4972,17.8372751 94.7159,23.8039751 L94.7159,23.8039751 Z" id="Path" fill="#231F1F" fill-rule="nonzero"/>
            <path d="M96.8908,40.2795751 C92.0309,50.7211751 79.6452,55.2346751 69.2228,50.3747751 C58.8004,45.5051751 54.2965,33.1002751 59.1565,22.6586751 C64.0164,12.2169751 76.402,7.70347507 86.8245,12.5634751 C97.2469,17.4329751 101.7509,29.8474751 96.8908,40.2795751 Z" id="Path" fill="#5D3EBC" fill-rule="nonzero"/>
            <g id="Clipped" transform="translate(57.209465, 10.619460)">
                <mask id="mask-2" fill="white">
                    <use xlink:href="#path-1"/>
                </mask>
                <g id="Path"/>
                <g id="Group" mask="url(#mask-2)">
                    <g transform="translate(-59.047358, -12.452896)" id="Clipped">
                        <g>
                            <mask id="mask-4" fill="white">
                                <use xlink:href="#path-3"/>
                            </mask>
                            <g id="Path"/>
                            <path d="M91.501793,20.787111 C90.269993,23.423911 87.142293,24.569111 84.505393,23.337311 C81.868493,22.105511 80.732893,18.968211 81.955093,16.331311 C83.186893,13.694411 86.314593,12.549211 88.951493,13.781011 C91.588393,15.012911 92.723993,18.150211 91.501793,20.787111 L91.501793,20.787111 Z" id="Path" fill="#FFD10D" fill-rule="nonzero" mask="url(#mask-4)"/>
                        </g>
                        <g>
                            <mask id="mask-6" fill="white">
                                <use xlink:href="#path-5"/>
                            </mask>
                            <g id="Path"/>
                            <path d="M75.776693,33.057211 C74.852893,35.049311 72.485493,35.905811 70.502993,34.981911 C68.510893,34.058011 67.654393,31.690611 68.578293,29.698511 C69.502093,27.706411 71.869493,26.849911 73.851993,27.773811 C75.834493,28.707311 76.700593,31.074711 75.776693,33.057211 Z" id="Path" fill="#FFD10D" fill-rule="nonzero" mask="url(#mask-6)"/>
                        </g>
                        <g>
                            <mask id="mask-8" fill="white">
                                <use xlink:href="#path-7"/>
                            </mask>
                            <g id="Path"/>
                            <path d="M73.081893,20.902611 C72.504493,22.144011 71.041693,22.673311 69.800293,22.095911 C68.568393,21.518511 68.029493,20.046111 68.606893,18.814311 C69.184293,17.572811 70.647093,17.043511 71.888593,17.620911 C73.129993,18.188711 73.659393,19.661111 73.081893,20.902611 Z" id="Path" fill="#FFD10D" fill-rule="nonzero" mask="url(#mask-8)"/>
                        </g>
                        <g>
                            <mask id="mask-10" fill="white">
                                <use xlink:href="#path-9"/>
                            </mask>
                            <g id="Path"/>
                            <path d="M68.173693,41.275811 C67.596293,42.517311 66.133493,43.046611 64.892093,42.469211 C63.660193,41.891711 63.121293,40.419311 63.698693,39.187511 C64.276093,37.946011 65.738893,37.416711 66.980393,37.994211 C68.221793,38.571611 68.751093,40.044011 68.173693,41.275811 L68.173693,41.275811 Z" id="Path" fill="#FFD10D" fill-rule="nonzero" mask="url(#mask-10)"/>
                        </g>
                        <g>
                            <mask id="mask-12" fill="white">
                                <use xlink:href="#path-11"/>
                            </mask>
                            <g id="Path"/>
                            <path d="M82.686193,36.290711 C81.762293,38.282811 82.618793,40.650311 84.610893,41.574111 C86.602993,42.498011 88.960793,41.641511 89.884593,39.649411 C90.808493,37.657311 89.951993,35.289911 87.959893,34.366011 C85.977393,33.442111 83.609993,34.298611 82.686193,36.290711 Z" id="Path" fill="#FFD10D" fill-rule="nonzero" mask="url(#mask-12)"/>
                        </g>
                        <g>
                            <mask id="mask-14" fill="white">
                                <use xlink:href="#path-13"/>
                            </mask>
                            <g id="Path"/>
                            <path d="M93.715293,30.535811 C93.137893,31.777311 93.676793,33.240111 94.908693,33.817511 C96.140493,34.394911 97.612893,33.856011 98.190293,32.624211 C98.767693,31.382711 98.228793,29.919911 96.996993,29.342511 C95.755493,28.765111 94.292693,29.304011 93.715293,30.535811 L93.715293,30.535811 Z" id="Path" fill="#FFD10D" fill-rule="nonzero" mask="url(#mask-14)"/>
                        </g>
                        <g>
                            <mask id="mask-16" fill="white">
                                <use xlink:href="#path-15"/>
                            </mask>
                            <g id="Path"/>
                            <path d="M81.281193,47.396411 C80.703793,48.637811 81.242793,50.100611 82.474593,50.678011 C83.706393,51.255511 85.178793,50.716511 85.756193,49.484711 C86.333693,48.243311 85.794693,46.780511 84.562893,46.203011 C83.331093,45.625611 81.858693,46.164511 81.281193,47.396411 L81.281193,47.396411 Z" id="Path" fill="#FFD10D" fill-rule="nonzero" mask="url(#mask-16)"/>
                        </g>
                    </g>
                </g>
            </g>
            <g id="Clipped" transform="translate(57.209465, 10.609875)">
                <mask id="mask-18" fill="white">
                    <use xlink:href="#path-17"/>
                </mask>
                <g id="Path"/>
                <path d="M29.7306351,1.713 C29.5478351,1.6264 29.3650351,1.5494 29.1725351,1.4724 L11.2436351,39.9862 C11.4265351,40.0728 11.5997351,40.1691 11.7825351,40.2557 C11.9654351,40.3423 12.1482351,40.4193 12.3407351,40.4963 L30.2696351,1.9728 C30.0963351,1.8862 29.9135351,1.7996 29.7306351,1.713 Z" id="Path" fill="#231F1F" fill-rule="nonzero" mask="url(#mask-18)"/>
            </g>
        </g>
    </g>
</svg>
